# xmcd CD database file
#
# Track frame offsets:
#	150
#	47825
#	78513
#	114233
#	140927
#	187733
#	223681
#	271723
#
# Disc length: 4287 seconds
#
# Revision: 0
# Processed by: cddbd v1.5.2PL0 Copyright (c) Steve Scherf et al.
# Submitted via: CDex 1.81
#
DISCID=6d10bd08
DTITLE=Artbeaters - Life Compass On!
DYEAR=2016
DGENRE=Jazz
TTITLE0=Eladorayda
TTITLE1=Driftin' On Vis
TTITLE2=Golden Wings
TTITLE3=Life Compass On!
TTITLE4=121.110
TTITLE5=Broken Spirits
TTITLE6=Sailor
TTITLE7=Drama On The Dancefloor
EXTD=YEAR: 2016
EXTT0=
EXTT1=
EXTT2=
EXTT3=
EXTT4=
EXTT5=
EXTT6=
EXTT7=
PLAYORDER=
